<svg width="25" height="26" viewBox="0 0 25 26" fill="none" xmlns="http://www.w3.org/2000/svg">
<path fill-rule="evenodd" clip-rule="evenodd" d="M12.4235 25.6667C19.2849 25.6667 24.8471 19.921 24.8471 12.8333C24.8471 5.74569 19.2849 0 12.4235 0C5.56219 0 0 5.74569 0 12.8333C0 19.921 5.56219 25.6667 12.4235 25.6667ZM16.2992 5.97831C16.4879 5.28609 15.8376 4.87675 15.2437 5.31384L6.9529 11.415C6.3088 11.889 6.41011 12.8333 7.10509 12.8333H9.28827V12.8159H13.5432L10.0762 14.0795L8.54783 19.6884C8.35918 20.3806 9.00943 20.7899 9.6034 20.3528L17.8942 14.2517C18.5383 13.7777 18.4369 12.8333 17.742 12.8333H14.4312L16.2992 5.97831Z" fill="#155EEF"/>
</svg>
